<svg width="35" height="35" viewBox="0 0 35 35" fill="none" xmlns="http://www.w3.org/2000/svg">
<path d="M10.965 2.91716C9.7124 2.90424 8.46986 3.14153 7.31018 3.61515C6.15051 4.08878 5.09708 4.7892 4.21166 5.6753C3.32628 6.56139 2.62667 7.61533 2.15395 8.77542C1.68125 9.93544 1.44492 11.1782 1.45883 12.4308C1.47274 13.6833 1.73662 14.9206 2.23497 16.0698C2.73066 17.2129 3.44842 18.2461 4.34648 19.1095L5.27876 20.0506L6.53813 21.3011L6.54178 21.3047L16.5303 31.2932C16.8038 31.5667 17.1747 31.7203 17.5615 31.7203C17.9482 31.7203 18.3192 31.5667 18.5927 31.2932L28.5811 21.3047L28.5848 21.3011L29.8357 20.059L30.7845 19.1014L30.7872 19.0986C31.66 18.2254 32.3525 17.1889 32.825 16.0483C33.2981 14.9065 33.5416 13.6826 33.5416 12.4467C33.5416 11.2107 33.2981 9.9869 32.825 8.84507C32.352 7.70324 31.6581 6.66531 30.784 5.79151C29.0197 4.02937 26.6281 3.03963 24.1345 3.03963C21.6776 3.03963 19.3195 4.00055 17.5631 5.71448C16.716 4.85676 15.7118 4.16948 14.6046 3.69043C13.455 3.19296 12.2176 2.93009 10.965 2.91716Z" fill="#6165D7"/>
</svg>
