<svg width="65" height="71" viewBox="0 0 65 71" fill="none" xmlns="http://www.w3.org/2000/svg">
<path d="M8.12508 14.7917C6.62931 14.7917 5.41675 16.1161 5.41675 17.75C5.41675 19.3838 6.62931 20.7083 8.12508 20.7083H56.8751C58.3708 20.7083 59.5834 19.3838 59.5834 17.75C59.5834 16.1161 58.3708 14.7917 56.8751 14.7917H8.12508Z" fill="white"/>
<path d="M8.12508 26.625C6.62931 26.625 5.41675 27.9495 5.41675 29.5833C5.41675 31.2172 6.62931 32.5417 8.12508 32.5417H56.8751C58.3708 32.5417 59.5834 31.2172 59.5834 29.5833C59.5834 27.9495 58.3708 26.625 56.8751 26.625H8.12508Z" fill="white"/>
<path d="M5.41675 41.4167C5.41675 39.7828 6.62931 38.4583 8.12508 38.4583H56.8751C58.3708 38.4583 59.5834 39.7828 59.5834 41.4167C59.5834 43.0505 58.3708 44.375 56.8751 44.375H8.12508C6.62931 44.375 5.41675 43.0505 5.41675 41.4167Z" fill="white"/>
<path d="M8.12508 50.2917C6.62931 50.2917 5.41675 51.6161 5.41675 53.25C5.41675 54.8838 6.62931 56.2083 8.12508 56.2083H56.8751C58.3708 56.2083 59.5834 54.8838 59.5834 53.25C59.5834 51.6161 58.3708 50.2917 56.8751 50.2917H8.12508Z" fill="white"/>
</svg>
