<svg width="35" height="35" viewBox="0 0 35 35" fill="none" xmlns="http://www.w3.org/2000/svg">
<path fill-rule="evenodd" clip-rule="evenodd" d="M30.7711 9.55413L30.8152 9.58811C31.598 10.1913 32.0834 11.1248 32.0834 12.1503V28.5657C32.0834 31.3136 29.877 33.5417 27.1251 33.5417H7.87508C5.1232 33.5417 2.91675 31.3136 2.91675 28.5657V12.1503C2.91675 11.1248 3.4022 10.1913 4.18498 9.58811L4.22772 9.55518L15.5876 2.07107C16.7146 1.25447 18.2252 1.25409 19.3527 2.06991L30.7711 9.55413ZM14.5834 18.9583V30.625H11.6667V18.6667C11.6667 17.2196 12.8447 16.0417 14.2917 16.0417H20.7084C22.1555 16.0417 23.3334 17.2196 23.3334 18.6667V30.625H20.4167V18.9583H14.5834Z" fill="white"/>
</svg>
