<svg width="101" height="108" viewBox="0 0 101 108" fill="none" xmlns="http://www.w3.org/2000/svg">
<rect width="101" height="108" fill="#979797"/>
<rect width="1920" height="1065" transform="translate(-55 -142)" fill="#F4F4F4"/>
<path d="M-55 -142H433C444.046 -142 453 -133.046 453 -122V903C453 914.046 444.046 923 433 923H-55V-142Z" fill="#6358DC"/>
<path d="M-55 -142H433C444.046 -142 453 -133.046 453 -122V903C453 914.046 444.046 923 433 923H-55V-142Z" fill="#6358DC"/>
<path d="M33.6667 58.5H21.0417C14.0685 58.5 8.41675 64.5435 8.41675 72V85.5C8.41675 92.9565 14.0685 99 21.0417 99H33.6667C40.64 99 46.2917 92.9565 46.2917 85.5V72C46.2917 64.5435 40.64 58.5 33.6667 58.5Z" fill="white"/>
<path opacity="0.35" d="M79.9583 58.5H67.3333C60.36 58.5 54.7083 64.5435 54.7083 72V85.5C54.7083 92.9565 60.36 99 67.3333 99H79.9583C86.9315 99 92.5833 92.9565 92.5833 85.5V72C92.5833 64.5435 86.9315 58.5 79.9583 58.5Z" fill="white"/>
<path opacity="0.35" d="M33.6667 9H21.0417C14.0685 9 8.41675 15.0435 8.41675 22.5V36C8.41675 43.4565 14.0685 49.5 21.0417 49.5H33.6667C40.64 49.5 46.2917 43.4565 46.2917 36V22.5C46.2917 15.0435 40.64 9 33.6667 9Z" fill="white"/>
<path opacity="0.35" d="M79.9583 9H67.3333C60.36 9 54.7083 15.0435 54.7083 22.5V36C54.7083 43.4565 60.36 49.5 67.3333 49.5H79.9583C86.9315 49.5 92.5833 43.4565 92.5833 36V22.5C92.5833 15.0435 86.9315 9 79.9583 9Z" fill="white"/>
<path d="M21.0417 42.75C21.0417 39.015 18.2221 36 14.7292 36C12.1621 36 9.93169 37.665 9.00586 40.005C10.2263 44.235 13.3404 47.565 17.2963 48.87C19.4846 47.88 21.0417 45.495 21.0417 42.75Z" fill="white"/>
<path d="M45.7026 40.005C44.7767 37.665 42.5463 36 39.9792 36C36.4863 36 33.6667 39.015 33.6667 42.75C33.6667 45.495 35.2238 47.88 37.4122 48.87C41.368 47.565 44.4822 44.235 45.7026 40.005Z" fill="white"/>
<path d="M21.0417 15.75C21.0417 13.005 19.4846 10.62 17.2963 9.63C13.3404 10.935 10.2263 14.265 9.00586 18.495C9.93169 20.835 12.1621 22.5 14.7292 22.5C18.2221 22.5 21.0417 19.485 21.0417 15.75Z" fill="white"/>
<path d="M45.7026 18.495C44.4822 14.265 41.368 10.935 37.4122 9.63C35.2238 10.62 33.6667 13.005 33.6667 15.75C33.6667 19.485 36.4863 22.5 39.9792 22.5C42.5463 22.5 44.7767 20.835 45.7026 18.495Z" fill="white"/>
<path d="M27.3542 22.5C30.8405 22.5 33.6667 25.5221 33.6667 29.25C33.6667 32.9779 30.8405 36 27.3542 36C23.868 36 21.0417 32.9779 21.0417 29.25C21.0417 25.5221 23.868 22.5 27.3542 22.5Z" fill="white"/>
<path d="M91.3629 41.805L61.9045 10.305C59.2954 11.655 57.1912 13.905 55.9287 16.695L85.387 48.195C87.9962 46.845 90.1004 44.595 91.3629 41.805Z" fill="white"/>
<path d="M73.3091 49.5L54.7083 29.61V36C54.7083 43.47 60.3474 49.5 67.3333 49.5H73.3091Z" fill="white"/>
<path d="M92.5833 28.89V22.5C92.5833 15.03 86.9441 9 79.9583 9H73.9824L92.5833 28.89Z" fill="white"/>
</svg>
