<svg width="45" height="45" viewBox="0 0 45 45" fill="none" xmlns="http://www.w3.org/2000/svg">
<path d="M7.5 10.125C7.5 8.67525 8.67525 7.5 10.125 7.5L21.75 7.5C23.1997 7.5 24.375 8.67525 24.375 10.125L24.375 15C24.375 16.0355 25.2145 16.875 26.25 16.875C27.2855 16.875 28.125 16.0355 28.125 15L28.125 10.125C28.125 6.60419 25.2708 3.75 21.75 3.75H10.125C6.60419 3.75 3.75 6.60419 3.75 10.125V34.875C3.75 38.3958 6.60418 41.25 10.125 41.25H21.75C25.2708 41.25 28.125 38.3958 28.125 34.875V30C28.125 28.9645 27.2855 28.125 26.25 28.125C25.2145 28.125 24.375 28.9645 24.375 30V34.875C24.375 36.3247 23.1997 37.5 21.75 37.5H10.125C8.67525 37.5 7.5 36.3247 7.5 34.875L7.5 10.125Z" fill="white"/>
<path d="M32.4242 15.5492C33.1564 14.8169 34.3436 14.8169 35.0758 15.5492L40.7008 21.1742C41.4331 21.9064 41.4331 23.0936 40.7008 23.8258L35.0758 29.4508C34.3436 30.1831 33.1564 30.1831 32.4242 29.4508C31.6919 28.7186 31.6919 27.5314 32.4242 26.7992L34.8484 24.375H13.125C12.0895 24.375 11.25 23.5355 11.25 22.5C11.25 21.4645 12.0895 20.625 13.125 20.625H34.8484L32.4242 18.2008C31.6919 17.4686 31.6919 16.2814 32.4242 15.5492Z" fill="white"/>
</svg>
