<svg width="585" height="666" viewBox="0 0 585 666" fill="none" xmlns="http://www.w3.org/2000/svg">
<path d="M565.674 257.792C559.36 169.063 556.203 124.699 541.508 95.9958C499.433 13.8105 377.103 -5.73655 299.843 1.75924C196.409 11.7916 78.0827 79.5626 25.9972 210.411C-21.3101 329.259 0.503489 463.786 71.7854 551.788C202.457 713.109 472.001 684.307 537.846 578.451C564.123 536.205 566.018 468.729 568.802 369.609C570.14 321.896 567.529 283.873 565.674 257.792Z" fill="#F4F7FA"/>
<path d="M516.109 54.5692C509.422 48.2633 499.278 44.8289 490.703 44.1354C429.919 39.2261 421.049 184.038 430.365 216.401C439.682 248.764 433.645 259.39 385.773 276.322C337.901 293.254 360.867 325.855 366.702 344.92C372.537 363.985 384.092 380.09 349.194 399.034C314.296 417.978 326.424 429.715 326.424 429.715C326.424 429.715 390.781 504.747 387.226 480.725C383.671 456.704 390.112 420.431 447.813 417.674C472.667 416.486 510.727 402.974 519.154 372.642C521.117 365.578 522.482 354.791 520.989 347.48C518.918 337.338 513.079 329.349 509.837 319.803C502.281 297.56 521.233 281.272 532.14 266.404C537.835 258.642 543.526 250.683 547.886 241.834C556.94 223.46 553.549 203.756 543.691 186.819C538.963 178.699 532.394 170.082 530.331 160.394C528.116 149.989 530.048 135.771 530.573 125.067C530.986 116.671 531.688 108.308 531.273 99.8907C530.506 84.2389 527.289 65.1122 516.109 54.5692Z" fill="url(#paint0_linear_1_6)"/>
<g opacity="0.8">
<g opacity="0.8">
<path opacity="0.8" d="M321.363 471.828C320.946 471.999 320.473 471.797 320.263 471.339C320.033 470.838 320.202 470.218 320.642 469.957C320.913 469.795 348.007 453.552 378.231 426.799C406.081 402.148 442.363 363.279 457.052 318.093C469.322 280.355 480.51 217.966 487.751 146.927C494.244 83.2249 495.27 36.1125 492.511 27.3674C492.342 26.8354 492.586 26.2487 493.052 26.0564C493.519 25.864 494.034 26.1418 494.203 26.6739C497.431 36.9058 495.382 89.83 489.539 147.165C482.283 218.361 471.057 280.921 458.74 318.806C443.899 364.455 407.355 403.623 379.31 428.44C348.961 455.298 321.748 471.61 321.477 471.771C321.438 471.793 321.4 471.812 321.363 471.828Z" fill="white"/>
</g>
<g opacity="0.8">
<path opacity="0.8" d="M487.653 159.276C487.188 159.466 486.715 159.319 486.544 158.789C486.319 158.088 463.66 88.6049 434.44 72.9174C433.99 72.6775 433.809 72.098 434.019 71.585C434.232 71.072 434.771 70.8701 435.219 71.11C465.108 87.1561 487.297 155.181 488.228 158.076C488.399 158.608 488.124 159.083 487.657 159.273C487.655 159.276 487.653 159.276 487.653 159.276Z" fill="white"/>
</g>
<g opacity="0.8">
<path opacity="0.8" d="M476.602 239.855C476.256 239.997 475.851 239.886 475.603 239.541C475.289 239.104 475.343 238.458 475.726 238.1C475.893 237.943 492.576 222.345 513.16 209.256C540.973 191.571 562.289 186.634 576.513 194.583C576.959 194.832 577.143 195.445 576.924 195.953C576.705 196.462 576.167 196.671 575.721 196.421C542.993 178.133 477.525 239.061 476.868 239.679C476.787 239.757 476.695 239.817 476.602 239.855Z" fill="white"/>
</g>
<g opacity="0.8">
<path opacity="0.8" d="M403.969 404.561C403.877 404.599 403.782 404.618 403.679 404.621C403.183 404.63 402.775 404.179 402.767 403.611C402.762 403.314 402.3 373.502 396.826 342.089C391.806 313.289 381.441 277.214 360.569 268.901C360.1 268.713 359.852 268.129 360.017 267.597C360.179 267.062 360.694 266.78 361.161 266.967C378.565 273.898 391.158 299.048 398.593 341.719C404.096 373.31 404.559 403.281 404.563 403.58C404.571 404.032 404.321 404.416 403.969 404.561Z" fill="white"/>
</g>
<g opacity="0.8">
<path opacity="0.8" d="M441.11 356.396C440.745 356.546 440.324 356.413 440.082 356.04C439.787 355.584 439.872 354.943 440.27 354.608C443.164 352.169 511.439 294.96 538.064 300.422C538.554 300.522 538.877 301.057 538.79 301.612C538.702 302.17 538.235 302.541 537.746 302.439C511.875 297.131 442.041 355.662 441.339 356.254C441.268 356.318 441.189 356.363 441.11 356.396Z" fill="white"/>
</g>
</g>
<path d="M569.457 267.861C565.037 259.349 556.51 252.204 548.647 248.245C492.905 220.183 441.567 353.032 440.725 387.079C439.884 421.126 431.048 428.797 380.976 426.268C330.901 423.738 342.833 463.274 342.664 483.465C342.495 503.656 348.586 523.267 310.123 527.635C271.659 532.002 279.586 547.723 279.586 547.723C279.586 547.723 317.873 643.15 321.659 619.173C325.445 595.196 342.275 563.548 397.39 583.209C421.129 591.677 460.955 593.641 477.891 568.348C481.835 562.458 486.322 552.834 487.087 545.379C488.147 535.038 485.026 525.267 484.807 515.035C484.299 491.189 506.971 483.17 521.647 473.387C529.309 468.281 537.028 462.984 543.759 456.339C557.733 442.542 560.394 422.693 556.145 402.954C554.107 393.489 550.483 382.846 551.419 372.935C552.423 362.29 558.462 349.654 562.134 339.784C565.014 332.043 568.158 324.443 570.267 316.363C574.195 301.331 576.848 282.093 569.457 267.861Z" fill="url(#paint1_linear_1_6)"/>
<g opacity="0.8">
<g opacity="0.8">
<path opacity="0.8" d="M262.321 585.396C261.88 585.396 261.494 585.023 261.432 584.51C261.365 583.95 261.709 583.432 262.2 583.356C262.503 583.309 292.82 578.473 329.204 564.954C362.729 552.499 408.411 529.914 435.649 493.06C458.398 462.279 487.449 407.886 515.351 343.83C540.372 286.391 555.324 242.452 555.324 233.158C555.324 232.593 555.726 232.134 556.222 232.134C556.718 232.134 557.12 232.593 557.12 233.158C557.12 244.031 539.48 293.044 516.96 344.742C488.995 408.939 459.859 463.48 437.022 494.38C409.505 531.612 363.487 554.375 329.729 566.913C293.198 580.482 262.746 585.337 262.442 585.384C262.405 585.394 262.363 585.396 262.321 585.396Z" fill="white"/>
</g>
<g opacity="0.8">
<path opacity="0.8" d="M511.595 355.625C511.101 355.625 510.699 355.198 510.697 354.635C510.693 353.889 509.999 279.713 487.16 253.682C486.808 253.283 486.808 252.639 487.16 252.24C487.51 251.841 488.079 251.843 488.431 252.242C511.793 278.869 512.476 351.538 512.495 354.621C512.499 355.186 512.099 355.625 511.601 355.625C511.597 355.625 511.595 355.625 511.595 355.625Z" fill="white"/>
</g>
<g opacity="0.8">
<path opacity="0.8" d="M477.274 426.98C476.905 426.98 476.559 426.719 476.428 426.301C476.261 425.769 476.503 425.182 476.972 424.99C477.174 424.906 497.504 416.662 520.761 412.285C552.183 406.369 573.707 409.946 584.735 422.911C585.081 423.317 585.071 423.966 584.714 424.36C584.358 424.754 583.789 424.742 583.443 424.336C558.074 394.505 478.38 426.59 477.578 426.918C477.476 426.961 477.374 426.98 477.274 426.98Z" fill="white"/>
</g>
<g opacity="0.8">
<path opacity="0.8" d="M360.027 553.958C359.931 553.958 359.833 553.939 359.735 553.903C359.266 553.72 359.014 553.138 359.177 552.601C359.26 552.319 367.677 524.089 371.851 492.417C375.676 463.379 376.633 425.434 359.46 409.561C359.075 409.205 359.016 408.559 359.329 408.12C359.641 407.68 360.208 407.611 360.594 407.97C374.914 421.204 379.298 449.729 373.624 492.747C369.425 524.597 360.962 552.979 360.877 553.264C360.75 553.689 360.4 553.958 360.027 553.958Z" fill="white"/>
</g>
<g opacity="0.8">
<path opacity="0.8" d="M409.274 522.958C408.886 522.958 408.53 522.671 408.413 522.229C408.269 521.687 408.54 521.115 409.015 520.953C412.462 519.775 493.694 492.272 517.127 507.681C517.556 507.964 517.704 508.591 517.456 509.08C517.208 509.569 516.658 509.738 516.229 509.455C493.459 494.483 410.368 522.63 409.532 522.915C409.447 522.944 409.359 522.958 409.274 522.958Z" fill="white"/>
</g>
</g>
<path d="M382.602 28.5384L381.96 33.7779C379.828 33.8895 377.732 34.203 375.692 34.7255L373.954 29.8376C373.481 28.5052 372.141 27.871 370.964 28.4244L363.593 31.8849C362.413 32.4383 361.838 33.9726 362.309 35.3074L364.056 40.2571C362.27 41.5539 360.582 43.0218 359.011 44.6463L355.31 41.3734C354.309 40.4899 352.859 40.7084 352.069 41.8627L347.118 49.083C346.324 50.2397 346.493 51.8975 347.493 52.7834L351.209 56.0753C350.219 58.1939 349.387 60.4312 348.716 62.7659L344.001 62.0605C342.734 61.8705 341.554 62.8942 341.367 64.3477L340.181 73.4538C339.991 74.9121 340.867 76.2517 342.136 76.4417L346.866 77.1495C346.922 79.6077 347.158 82.0256 347.577 84.3793L343.138 86.4884C341.942 87.056 341.354 88.6259 341.825 89.9916L344.782 98.5562C345.255 99.929 346.612 100.577 347.812 100.005L352.253 97.8864C353.37 99.9575 354.643 101.91 356.056 103.724L353.097 108.104C352.296 109.289 352.467 110.985 353.48 111.892L359.823 117.564C360.838 118.471 362.311 118.243 363.11 117.053L366.033 112.702C367.9 113.835 369.876 114.778 371.937 115.531L371.272 120.96C371.091 122.447 371.98 123.808 373.26 123.998L381.268 125.195C382.55 125.388 383.731 124.335 383.91 122.849L384.556 117.46C386.734 117.353 388.874 117.032 390.956 116.498L392.713 121.476C393.2 122.858 394.565 123.511 395.761 122.934L403.23 119.326C404.424 118.749 404.993 117.165 404.503 115.788L402.746 110.845C404.57 109.503 406.287 107.981 407.879 106.297L411.53 109.532C412.551 110.436 414.014 110.208 414.797 109.023L419.688 101.632C420.469 100.452 420.275 98.7676 419.256 97.8674L415.639 94.6706C416.625 92.4926 417.444 90.1911 418.094 87.7947L422.616 88.4716C423.885 88.6616 425.047 87.6284 425.212 86.1653L426.239 77.0355C426.404 75.5796 425.51 74.2447 424.243 74.0547L419.734 73.3802C419.64 70.8911 419.365 68.4495 418.902 66.0768L423.084 64.0817C424.26 63.5212 424.816 61.9726 424.329 60.6236L421.274 52.2062C420.786 50.8619 419.44 50.2254 418.265 50.7836L414.057 52.7834C412.911 50.7337 411.615 48.8004 410.175 47.0119L412.955 42.8769C413.728 41.725 413.538 40.079 412.534 39.1979L406.251 33.6948C405.247 32.816 403.807 33.0321 403.032 34.1793L400.235 38.3191C398.381 37.2218 396.422 36.3097 394.377 35.5877L395.001 30.3886C395.171 28.9588 394.294 27.6454 393.038 27.4578L385.188 26.2845C383.937 26.1016 382.777 27.1062 382.602 28.5384ZM354.926 70.979C357.196 52.9853 371.684 40.3711 387.303 42.7059C402.921 45.0406 413.891 61.462 411.792 79.4795C409.681 97.6086 395.161 110.47 379.372 108.111C363.583 105.75 352.644 89.082 354.926 70.979Z" fill="#D8DEE8"/>
<path d="M262.235 25.6975L261.243 33.7989C257.949 33.9699 254.706 34.4544 251.551 35.262L248.865 27.7044C248.132 25.6428 246.062 24.6643 244.243 25.5193L232.847 30.8704C231.023 31.7278 230.133 34.0958 230.863 36.1645L233.564 43.8171C230.802 45.8216 228.191 48.0899 225.764 50.6051L220.033 45.5438C218.489 44.1781 216.245 44.5177 215.024 46.299L207.368 57.462C206.14 59.2504 206.401 61.8132 207.947 63.1836L213.692 68.2758C212.162 71.551 210.875 75.0116 209.837 78.6193L202.546 77.5292C200.589 77.237 198.765 78.8188 198.472 81.0657L196.64 95.1476C196.346 97.4039 197.701 99.4726 199.664 99.7648L206.976 100.857C207.063 104.657 207.426 108.398 208.076 112.037L201.214 115.298C199.364 116.177 198.455 118.602 199.184 120.715L203.756 133.957C204.488 136.078 206.586 137.082 208.441 136.196L215.307 132.921C217.032 136.123 219.002 139.141 221.188 141.946L216.614 148.718C215.376 150.551 215.64 153.174 217.207 154.575L227.016 163.344C228.585 164.747 230.863 164.393 232.099 162.555L236.618 155.829C239.505 157.582 242.562 159.04 245.748 160.204L244.718 168.6C244.437 170.899 245.812 173.003 247.794 173.298L260.176 175.148C262.156 175.445 263.985 173.818 264.261 171.519L265.261 163.187C268.628 163.023 271.937 162.527 275.155 161.7L277.87 169.398C278.624 171.535 280.735 172.545 282.584 171.652L294.132 166.075C295.977 165.184 296.858 162.733 296.1 160.6L293.382 152.957C296.202 150.884 298.856 148.528 301.32 145.925L306.963 150.927C308.54 152.326 310.801 151.972 312.014 150.143L319.576 138.716C320.783 136.892 320.485 134.287 318.909 132.895L313.316 127.955C314.842 124.585 316.106 121.027 317.111 117.324L324.104 118.369C326.067 118.663 327.866 117.065 328.12 114.804L329.708 100.686C329.962 98.4324 328.578 96.3708 326.621 96.0786L319.649 95.036C319.505 91.1883 319.08 87.4119 318.363 83.7448L324.831 80.6595C326.651 79.7926 327.511 77.3985 326.753 75.3132L322.029 62.2977C321.274 60.2195 319.193 59.2362 317.378 60.0983L310.874 63.1883C309.103 60.0176 307.096 57.0297 304.872 54.2675L309.169 47.8737C310.365 46.0948 310.074 43.5487 308.517 42.1854L298.802 33.6778C297.25 32.3192 295.022 32.6541 293.824 34.4283L289.498 40.8292C286.628 39.1334 283.601 37.7226 280.442 36.6039L281.406 28.5642C281.671 26.353 280.312 24.3247 278.372 24.0349L266.234 22.2203C264.298 21.9306 262.506 23.4863 262.235 25.6975ZM219.443 91.3189C222.951 63.4971 245.354 43.9928 269.501 47.603C293.649 51.2131 310.609 76.6029 307.367 104.463C304.104 132.491 281.654 152.38 257.242 148.73C232.828 145.082 215.913 119.307 219.443 91.3189Z" fill="#D8DEE8"/>
<path d="M250.621 104.147L197.534 607.082C196.738 614.623 201.297 621.383 207.686 622.105L428.806 649.775C442.351 650.734 449.768 642.847 450.605 634.828L506.342 100.123C507.173 92.1501 500.528 84.9275 486.925 84.9275L263.793 90.2833C257.331 90.4092 251.413 96.6462 250.621 104.147Z" fill="url(#paint2_linear_1_6)"/>
<path d="M240.669 103.282L187.289 608.733C186.489 616.312 191.065 623.108 197.475 623.834L426.714 649.849C433.901 650.663 440.488 644.737 441.328 636.679L497.377 99.2115C498.213 91.1956 492.934 84.7543 485.668 84.8944L253.887 89.3525C247.406 89.4736 241.465 95.7438 240.669 103.282Z" fill="url(#paint3_linear_1_6)"/>
<path d="M245.02 131.161L195.543 599.815C194.795 606.895 199.082 613.232 205.081 613.897L420.673 637.783C427.354 638.524 433.476 632.992 434.26 625.489L486.058 128.995C486.837 121.532 481.936 115.493 475.186 115.576L257.381 118.219C251.319 118.29 245.764 124.117 245.02 131.161Z" fill="#D8DEE8"/>
<path d="M360.632 102.933C360.348 105.624 362.042 107.778 364.418 107.743C366.796 107.709 368.954 105.496 369.238 102.8C369.521 100.104 367.821 97.9502 365.443 97.9906C363.065 98.0309 360.913 100.245 360.632 102.933Z" fill="url(#paint4_linear_1_6)"/>
<path d="M282.293 445.752C326.429 352.746 392.364 324.905 412.214 229.051C422.944 177.238 415.634 127.646 403.32 86.4763L485.672 84.8921C492.938 84.752 498.216 91.1956 497.381 99.2092L441.332 636.676C440.492 644.737 433.905 650.663 426.718 649.846L246.514 629.397C245.178 546.059 262.617 487.209 282.293 445.752Z" fill="white"/>
<path d="M23.0282 156.62C23.0282 107.199 60.852 67.1435 106.242 67.1483C150.29 67.153 185.053 105.102 185.053 151.908C185.053 198.714 150.29 238.685 106.242 241.252C60.8499 243.898 23.0282 206.041 23.0282 156.62Z" fill="url(#paint5_linear_1_6)"/>
<path d="M27.9211 152.68C27.9211 103.259 64.6508 63.2028 108.726 63.2075C151.499 63.2123 185.257 101.162 185.257 147.968C185.257 194.774 151.499 234.744 108.726 237.311C64.6488 239.957 27.9211 202.098 27.9211 152.68Z" fill="url(#paint6_linear_1_6)"/>
<g opacity="0.5">
<path opacity="0.5" d="M40.4952 152.302C40.4952 110.781 71.3527 77.1255 108.385 77.1326C144.32 77.1373 172.684 109.021 172.684 148.345C172.684 187.669 144.322 221.251 108.385 223.408C71.3527 225.631 40.4952 193.823 40.4952 152.302Z" fill="white"/>
</g>
<path opacity="0.5" d="M105.836 83.5121C141.772 83.5168 170.135 115.4 170.135 154.725C170.135 164.075 168.516 173.094 165.588 181.449C170.122 171.388 172.686 160.128 172.686 148.345C172.686 109.021 144.325 77.1373 108.387 77.1326C79.8256 77.1302 54.9529 97.157 45.0609 125.364C56.2616 100.565 79.4797 83.5097 105.836 83.5121Z" fill="white"/>
<path d="M77.6803 142.139V178.379C77.6803 188.855 85.4134 197.12 94.924 196.838L118.507 196.137C127.903 195.857 135.496 187.228 135.496 176.861V141.004L77.6803 142.139ZM99.398 179.604L103.78 164.468C101.903 163.363 100.632 161.188 100.632 158.653C100.632 154.934 103.37 151.858 106.741 151.787C110.109 151.713 112.837 154.663 112.837 158.376C112.837 160.905 111.57 163.135 109.698 164.328L114.064 179.215L99.398 179.604Z" fill="white"/>
<path d="M128.793 137.862C126.29 137.909 124.26 135.703 124.26 132.931C124.26 122.279 116.415 113.728 106.739 113.871C97.0307 114.013 89.1059 122.851 89.1059 133.57C89.1059 136.358 87.0491 138.657 84.5089 138.707C81.9667 138.755 79.9037 136.532 79.9037 133.739C79.9037 117.424 91.9753 103.995 106.741 103.808C121.428 103.62 133.317 116.612 133.317 132.77C133.317 135.534 131.293 137.814 128.793 137.862Z" fill="white"/>
<path d="M183.414 344.559C183.414 344.559 181.809 337.704 182.947 335.951C184.083 334.199 191.032 327.192 190.366 329.477C189.697 331.762 188.694 333.284 188.694 333.284C188.694 333.284 192.437 335.265 190.03 338.234C187.625 341.205 186.821 341.889 186.688 344.556C186.556 347.224 185.018 348.138 183.414 344.559Z" fill="url(#paint7_linear_1_6)"/>
<path d="M116.658 640.441C116.658 640.441 115.808 646.369 115.916 648.478C116.025 650.587 136.567 651.665 136.773 650.086C136.98 648.506 133.379 645.991 130.843 645.105C128.307 644.217 120.884 641.851 120.884 641.851L116.658 640.441Z" fill="url(#paint8_linear_1_6)"/>
<path d="M121.644 634.532L120.989 641.904C120.989 641.904 118.603 643.702 116.501 642.315L115.448 634.292L121.644 634.532Z" fill="url(#paint9_linear_1_6)"/>
<path d="M80.0058 650.051C80.0058 650.051 79.1555 655.979 79.2639 658.088C79.3723 660.197 99.9148 661.275 100.121 659.696C100.329 658.116 96.7265 655.601 94.1904 654.715C91.6544 653.829 84.2318 651.461 84.2318 651.461L80.0058 650.051Z" fill="url(#paint10_linear_1_6)"/>
<path d="M84.9931 644.141L84.3388 651.513C84.3388 651.513 81.9528 653.311 79.8502 651.924L78.7979 643.901L84.9931 644.141Z" fill="url(#paint11_linear_1_6)"/>
<path d="M117.917 442.087C120.291 447.574 122.666 453.06 125.04 458.546C126.948 489.857 127.899 523.907 127.288 560.319C126.834 587.41 125.565 613.072 123.739 637.161C120.52 636.992 117.3 636.823 114.081 636.655C109.425 626.124 103.93 610.17 103.424 590.476C102.897 569.934 108.361 567.205 108.015 547.536C107.565 522.042 98.1852 515.24 93.1882 484.575C91.2773 472.847 89.9916 457.53 91.5191 438.947C100.319 439.995 109.117 441.042 117.917 442.087Z" fill="url(#paint12_linear_1_6)"/>
<path opacity="0.3" d="M91.5208 438.947C96.272 439.512 101.023 440.078 105.776 440.643C114.331 457.608 116.719 475.265 115.216 483.076C113.093 494.128 107.475 497.667 107.785 508.761C108.092 519.738 113.766 522.586 117.365 535.523C119.857 544.482 119.198 552.719 117.781 568.827C114.927 601.273 108.052 611.196 113.81 621.834C115.445 624.858 118.394 628.456 124.17 631.204C124.029 633.194 123.889 635.189 123.741 637.158C120.522 636.992 117.302 636.821 114.083 636.655C109.427 626.124 103.932 610.17 103.426 590.476C102.899 569.934 108.362 567.205 108.017 547.536C107.566 522.042 98.187 515.242 93.19 484.578C91.2791 472.849 89.9913 457.532 91.5208 438.947Z" fill="url(#paint13_linear_1_6)"/>
<path d="M105.141 451.965C100.683 479.668 96.7468 509.316 93.6752 540.76C89.966 578.726 87.9864 614.519 87.2091 647.749C83.6749 647.863 80.1428 647.977 76.6086 648.091C62.6844 616.694 61.8342 595.409 63.8409 581.55C64.614 576.211 66.7166 565.739 67.1959 550.087C67.5293 539.179 66.9188 530.875 66.1561 520.895C64.4848 499.013 62.4552 494.237 62.1634 477.5C61.8884 461.791 61.8321 453.844 65.7664 449.205C76.1314 436.981 103.096 450.882 105.141 451.965Z" fill="url(#paint14_linear_1_6)"/>
<path d="M181.566 343.502C183.917 343.314 186.265 343.129 188.616 342.941C194.159 368.476 190.183 393.244 177.671 402.352C158.123 416.584 121.791 389.771 113.918 360.574C110.463 347.758 111.249 329.266 118.157 325.672C120.074 324.675 123.05 324.52 129.495 328.643C148.744 340.961 149.25 364.241 159.036 366.213C163.383 367.091 170.409 363.93 181.566 343.502Z" fill="url(#paint15_linear_1_6)"/>
<path d="M127.744 464.164C131.131 457.76 126.878 451.585 125.911 439.455C124.815 425.706 129.462 423.417 134.056 400.632C137.113 385.479 140.045 370.932 136.544 353.902C134.867 345.741 132.02 331.899 121.968 325.213C116.781 321.762 109.698 322.109 95.7471 322.94C78.4929 323.969 69.8679 324.482 63.433 328.344C62.4911 328.909 42.9197 341.043 41.5715 360.823C40.2003 380.955 59.4341 383.66 61.9994 410.505C63.1517 422.557 61.0991 441.092 59.7676 453.112C58.4902 464.655 57.6087 467.61 59.6092 471.106C64.427 479.53 79.1744 477.129 108.669 472.329C120.238 470.443 125.217 468.942 127.744 464.164Z" fill="url(#paint16_linear_1_6)"/>
<path d="M82.8659 406.185C81.6177 411.418 77.1333 415.325 74.0117 428.053C73.3386 430.801 68.5354 450.369 74.764 455.186C78.3607 457.967 81.5906 452.697 90.3219 452.008C105.451 450.816 112.659 465.309 122.542 461.349C124.257 460.66 126.52 459.197 128.781 455.834C129.231 458.865 129.154 461.499 127.746 464.166C125.22 468.945 120.24 470.446 108.67 472.329C79.1755 477.129 64.4281 479.531 59.6103 471.106C57.6119 467.612 58.4913 464.655 59.7687 453.112C61.1002 441.09 63.1528 422.554 62.0005 410.506C59.4352 383.66 40.1993 380.955 41.5726 360.823C41.9393 355.441 43.6752 350.651 45.9987 346.478C70.3983 357.731 86.7856 389.743 82.8659 406.185Z" fill="url(#paint17_linear_1_6)"/>
<path d="M52.0493 445.783L56.9318 449.336C57.8091 448.181 59.8387 445.854 63.0062 445.061C66.5758 444.165 70.6747 445.45 70.7685 446.747C70.8456 447.787 68.3491 448.837 67.9636 448.998C64.8483 450.31 62.5373 449.219 61.2787 450.647C60.8327 451.15 60.2784 452.091 59.001 452.96C58.6655 453.188 58.3154 453.39 58.13 453.473C56.0503 454.395 52.4849 450.269 52.1785 449.908L52.0493 445.783Z" fill="url(#paint18_linear_1_6)"/>
<path d="M66.4713 372.805C70.0034 363.165 72.4498 348.404 66.8714 326.484C30.1166 342.991 11.3725 382.123 18.6909 413.142C24.7237 438.714 46.6748 451.169 51.5718 453.791C52.7117 450.834 53.8516 447.88 54.9893 444.925C49.315 437.724 42.9197 427.074 43.8241 414.921C45.0786 398.072 59.3216 392.321 66.4713 372.805Z" fill="url(#paint19_linear_1_6)"/>
<path d="M94.8421 303.108C94.8421 303.108 94.5525 310.435 92.5562 315.924C90.7516 320.883 81.2659 324.002 79.3426 325.109C77.4192 326.215 82.9455 329.453 88.4948 330.087C94.044 330.723 109.89 329.286 112.746 326.89C115.603 324.493 110.45 324.674 106.491 323.016C102.529 321.358 100.239 312.53 100.939 308.523C101.64 304.514 94.8421 303.108 94.8421 303.108Z" fill="url(#paint20_linear_1_6)"/>
<path d="M103.619 300.451C106.499 297.225 106.901 296.85 107.214 295.736C108.472 291.264 105.428 285.136 101.435 283.628C101.227 283.55 98.5493 282.573 97.5282 283.896C96.6592 285.02 97.9366 286.573 97.3302 288.741C96.7613 290.77 95.2193 290.922 92.3582 293.582C90.0014 295.772 88.5385 297.135 88.2009 299.052C87.5049 303.002 91.6997 308.726 95.4131 308.571C96.7488 308.514 97.1135 307.738 103.619 300.451Z" fill="url(#paint21_linear_1_6)"/>
<path d="M95.7783 309.181C95.7783 309.181 98.8395 313.131 103.501 311.825C107.675 310.656 106.61 299.736 103.555 297.992C102.536 297.41 100.684 297.458 99.2917 298.223C98.4686 298.674 98.2394 299.144 96.8828 299.852C95.6325 300.505 95.2345 300.415 94.899 300.876C94.478 301.45 94.2967 302.69 95.6158 305.678C94.6656 304.911 93.6424 304.75 93.0152 305.258C92.9152 305.339 92.6609 305.624 92.5505 305.996C92.1525 307.348 93.3861 308.723 95.7783 309.181Z" fill="url(#paint22_linear_1_6)"/>
<path d="M444.875 161.32L445.953 167.949L423.774 168.008L231.311 168.528C226.36 168.542 221.807 173.207 221.127 178.948L175.183 528.925C174.499 534.718 182.41 543.56 187.332 543.993L272.717 551.472V551.353L400.439 562.521C400.442 562.521 400.444 562.521 400.446 562.521L400.754 562.668C406.208 563.148 411.211 558.637 411.919 552.519C411.919 552.517 411.919 552.545 411.921 552.543L454.949 178.881C455.649 172.82 450.36 161.303 444.875 161.32Z" fill="url(#paint23_linear_1_6)"/>
<path d="M407.568 545.238C406.864 551.358 401.862 555.933 396.409 555.455L182.766 536.759C177.846 536.329 174.422 531.284 175.105 525.491L216.872 171.792C217.549 166.052 222.102 161.387 227.049 161.37L441.899 160.696C447.382 160.679 451.27 165.579 450.574 171.64L407.568 545.238Z" fill="url(#paint24_linear_1_6)"/>
<path d="M410.406 350.723C410.056 353.754 407.572 356.015 404.859 355.901L216.828 348.08C214.346 347.978 212.6 345.648 212.942 342.753L216.639 311.522C216.98 308.63 219.246 306.672 221.729 306.751L409.925 312.708C412.642 312.793 414.566 314.981 414.218 318.009L410.406 350.723Z" fill="white"/>
<path d="M403.125 414.179C402.775 417.217 400.289 419.808 397.576 419.654L209.687 409.075C207.207 408.935 205.482 406.23 205.823 403.332L209.549 371.499C209.891 368.603 212.177 366.122 214.659 366.236L402.663 374.878C405.376 375.004 407.295 377.802 406.945 380.835L403.125 414.179Z" fill="white"/>
<path opacity="0.1" d="M414.233 317.883C413.787 317.719 413.308 317.629 412.797 317.612L224.597 311.658C222.116 311.577 219.848 313.539 219.511 316.425L215.808 347.655C215.799 347.736 215.793 347.812 215.787 347.893C213.878 347.28 212.651 345.218 212.938 342.748L216.641 311.518C216.979 308.632 219.246 306.668 221.728 306.751L409.928 312.705C412.597 312.796 414.512 314.914 414.233 317.883Z" fill="url(#paint25_linear_1_6)"/>
<path opacity="0.1" d="M406.986 380.132C406.533 379.928 406.046 379.804 405.529 379.78L217.529 371.135C215.047 371.021 212.757 373.508 212.42 376.403L208.687 408.239C208.667 408.443 208.652 408.64 208.652 408.844C206.743 408.141 205.53 405.802 205.818 403.332L209.55 371.496C209.888 368.601 212.176 366.114 214.66 366.228L402.66 374.873C405.171 374.997 406.992 377.384 406.986 380.132Z" fill="url(#paint26_linear_1_6)"/>
<path d="M353.155 465.612C353.71 460.822 350.738 456.409 346.514 456.131L249.251 449.766C245.223 449.502 241.503 453.369 240.955 458.033L236.942 492.515C236.394 497.187 239.188 501.657 243.214 501.97L340.427 509.552C344.649 509.882 348.538 505.818 349.094 501.02L353.155 465.612Z" fill="url(#paint27_linear_1_6)"/>
<path d="M360.501 233.297C359.22 244.319 354.252 254.269 347.187 261.586C339.575 269.479 329.548 274.281 319.12 274.051C308.745 273.823 300.011 268.657 294.404 260.589C289.232 253.152 286.698 243.244 287.967 232.406C290.607 209.859 308.782 191.633 328.727 191.687C348.861 191.737 363.164 210.365 360.501 233.297Z" fill="url(#paint28_linear_1_6)"/>
<path d="M341.107 220.768C339.956 230.644 331.959 238.558 323.275 238.439C314.627 238.32 308.572 230.276 309.716 220.471C310.862 210.669 318.778 202.763 327.43 202.808C336.12 202.853 342.257 210.893 341.107 220.768Z" fill="white"/>
<path d="M347.189 261.587C339.577 269.479 329.549 274.282 319.122 274.051C308.746 273.823 300.013 268.657 294.405 260.589C300.824 250.398 311.409 243.619 322.652 243.785C333.954 243.952 343.065 251.091 347.189 261.587Z" fill="white"/>
<path opacity="0.4" d="M450.572 171.639L407.568 545.237C406.864 551.355 401.544 555.903 396.092 555.426L267.776 544.196C261.681 537.083 256.661 528.547 253.079 518.303C251.32 513.28 250.032 507.86 249.176 502.16C246.794 486.384 247.717 468.452 251.191 450.85C253.862 437.301 258.051 423.924 263.412 411.854C267.701 402.204 272.744 393.38 278.376 385.965C282.432 380.628 286.818 375.444 291.444 370.359C297.023 364.221 302.951 358.231 309.067 352.296C323.319 338.456 338.579 324.925 352.707 310.637C385.307 277.675 411.755 240.845 405.391 188.293C405.186 186.638 403.201 173.962 400.662 160.823L441.581 160.695C447.061 160.678 451.27 165.58 450.572 171.639Z" fill="white"/>
<defs>
<linearGradient id="paint0_linear_1_6" x1="391.584" y1="479.962" x2="582.423" y2="27.7513" gradientUnits="userSpaceOnUse">
<stop offset="0.00359712" stop-color="#E38DDD"/>
<stop offset="1" stop-color="#9571F6"/>
</linearGradient>
<linearGradient id="paint1_linear_1_6" x1="278.912" y1="433.709" x2="574.134" y2="433.709" gradientUnits="userSpaceOnUse">
<stop stop-color="#FF9085"/>
<stop offset="1" stop-color="#FB6FBB"/>
</linearGradient>
<linearGradient id="paint2_linear_1_6" x1="354.673" y1="354.384" x2="442.052" y2="362.747" gradientUnits="userSpaceOnUse">
<stop stop-color="#444B8C"/>
<stop offset="0.9964" stop-color="#26264F"/>
</linearGradient>
<linearGradient id="paint3_linear_1_6" x1="277.893" y1="104.024" x2="551.318" y2="920.728" gradientUnits="userSpaceOnUse">
<stop stop-color="#444B8C"/>
<stop offset="0.9964" stop-color="#26264F"/>
</linearGradient>
<linearGradient id="paint4_linear_1_6" x1="358.637" y1="83.4299" x2="676.224" y2="838.084" gradientUnits="userSpaceOnUse">
<stop stop-color="#FFC444"/>
<stop offset="0.9964" stop-color="#F36F56"/>
</linearGradient>
<linearGradient id="paint5_linear_1_6" x1="-1853.88" y1="2258.5" x2="-1659.61" y2="2097.77" gradientUnits="userSpaceOnUse">
<stop stop-color="#311944"/>
<stop offset="1" stop-color="#893976"/>
</linearGradient>
<linearGradient id="paint6_linear_1_6" x1="53.9427" y1="204.716" x2="208.856" y2="81.3752" gradientUnits="userSpaceOnUse">
<stop stop-color="#FF9085"/>
<stop offset="1" stop-color="#FB6FBB"/>
</linearGradient>
<linearGradient id="paint7_linear_1_6" x1="194.579" y1="329.553" x2="163.422" y2="357.377" gradientUnits="userSpaceOnUse">
<stop stop-color="#FFC444"/>
<stop offset="0.9964" stop-color="#F36F56"/>
</linearGradient>
<linearGradient id="paint8_linear_1_6" x1="126.398" y1="632.671" x2="126.699" y2="561.878" gradientUnits="userSpaceOnUse">
<stop stop-color="#AA80F9"/>
<stop offset="0.9964" stop-color="#6165D7"/>
</linearGradient>
<linearGradient id="paint9_linear_1_6" x1="120.245" y1="655.421" x2="116.413" y2="618.931" gradientUnits="userSpaceOnUse">
<stop stop-color="#FFC444"/>
<stop offset="0.9964" stop-color="#F36F56"/>
</linearGradient>
<linearGradient id="paint10_linear_1_6" x1="89.7786" y1="632.516" x2="90.0798" y2="561.722" gradientUnits="userSpaceOnUse">
<stop stop-color="#AA80F9"/>
<stop offset="0.9964" stop-color="#6165D7"/>
</linearGradient>
<linearGradient id="paint11_linear_1_6" x1="83.1324" y1="659.317" x2="79.2999" y2="622.828" gradientUnits="userSpaceOnUse">
<stop stop-color="#FFC444"/>
<stop offset="0.9964" stop-color="#F36F56"/>
</linearGradient>
<linearGradient id="paint12_linear_1_6" x1="119.122" y1="471.096" x2="89.8689" y2="602.313" gradientUnits="userSpaceOnUse">
<stop stop-color="#311944"/>
<stop offset="1" stop-color="#893976"/>
</linearGradient>
<linearGradient id="paint13_linear_1_6" x1="130.483" y1="535.967" x2="96.2288" y2="538.376" gradientUnits="userSpaceOnUse">
<stop stop-color="#311944"/>
<stop offset="1" stop-color="#893976"/>
</linearGradient>
<linearGradient id="paint14_linear_1_6" x1="111.565" y1="543.3" x2="59.5627" y2="546.957" gradientUnits="userSpaceOnUse">
<stop stop-color="#311944"/>
<stop offset="1" stop-color="#893976"/>
</linearGradient>
<linearGradient id="paint15_linear_1_6" x1="152.58" y1="347.962" x2="103.024" y2="627.19" gradientUnits="userSpaceOnUse">
<stop stop-color="#AA80F9"/>
<stop offset="0.9964" stop-color="#6165D7"/>
</linearGradient>
<linearGradient id="paint16_linear_1_6" x1="70.8735" y1="656.625" x2="46.7756" y2="939.96" gradientUnits="userSpaceOnUse">
<stop stop-color="#AA80F9"/>
<stop offset="0.9964" stop-color="#6165D7"/>
</linearGradient>
<linearGradient id="paint17_linear_1_6" x1="7.70122" y1="559.858" x2="131.509" y2="373.792" gradientUnits="userSpaceOnUse">
<stop stop-color="#AA80F9"/>
<stop offset="0.9964" stop-color="#6165D7"/>
</linearGradient>
<linearGradient id="paint18_linear_1_6" x1="44.0549" y1="421.427" x2="69.4621" y2="451.54" gradientUnits="userSpaceOnUse">
<stop stop-color="#FFC444"/>
<stop offset="0.9964" stop-color="#F36F56"/>
</linearGradient>
<linearGradient id="paint19_linear_1_6" x1="25.4766" y1="652.764" x2="1.37873" y2="936.099" gradientUnits="userSpaceOnUse">
<stop stop-color="#AA80F9"/>
<stop offset="0.9964" stop-color="#6165D7"/>
</linearGradient>
<linearGradient id="paint20_linear_1_6" x1="105.475" y1="338.446" x2="81.2675" y2="312.02" gradientUnits="userSpaceOnUse">
<stop stop-color="#FFC444"/>
<stop offset="0.9964" stop-color="#F36F56"/>
</linearGradient>
<linearGradient id="paint21_linear_1_6" x1="89.6425" y1="327.601" x2="103.625" y2="287.244" gradientUnits="userSpaceOnUse">
<stop stop-color="#444B8C"/>
<stop offset="0.9964" stop-color="#3E4177"/>
</linearGradient>
<linearGradient id="paint22_linear_1_6" x1="117.787" y1="313.162" x2="85.5175" y2="300.56" gradientUnits="userSpaceOnUse">
<stop stop-color="#FFC444"/>
<stop offset="0.9964" stop-color="#F36F56"/>
</linearGradient>
<linearGradient id="paint23_linear_1_6" x1="175.142" y1="362.013" x2="455.012" y2="362.013" gradientUnits="userSpaceOnUse">
<stop stop-color="#311944"/>
<stop offset="1" stop-color="#893976"/>
</linearGradient>
<linearGradient id="paint24_linear_1_6" x1="345.294" y1="989.403" x2="301.985" y2="331.227" gradientUnits="userSpaceOnUse">
<stop offset="0.003597" stop-color="#F36F56"/>
<stop offset="1" stop-color="#FFC444"/>
</linearGradient>
<linearGradient id="paint25_linear_1_6" x1="212.896" y1="327.323" x2="414.259" y2="327.323" gradientUnits="userSpaceOnUse">
<stop offset="0.003597" stop-color="#F36F56"/>
<stop offset="1" stop-color="#FFC444"/>
</linearGradient>
<linearGradient id="paint26_linear_1_6" x1="205.778" y1="387.535" x2="406.985" y2="387.535" gradientUnits="userSpaceOnUse">
<stop offset="0.003597" stop-color="#F36F56"/>
<stop offset="1" stop-color="#FFC444"/>
</linearGradient>
<linearGradient id="paint27_linear_1_6" x1="304.676" y1="409.767" x2="246.666" y2="732.525" gradientUnits="userSpaceOnUse">
<stop offset="0.003597" stop-color="#F36F56"/>
<stop offset="1" stop-color="#FFC444"/>
</linearGradient>
<linearGradient id="paint28_linear_1_6" x1="319.472" y1="71.2801" x2="331.946" y2="397.195" gradientUnits="userSpaceOnUse">
<stop offset="0.003597" stop-color="#F36F56"/>
<stop offset="1" stop-color="#FFC444"/>
</linearGradient>
</defs>
</svg>
